<svg width="36" height="33" viewBox="0 0 36 33" fill="none" xmlns="http://www.w3.org/2000/svg">
<path d="M33 18H3C2.20435 18 1.44129 18.3161 0.87868 18.8787C0.31607 19.4413 0 20.2044 0 21V30C0 30.7956 0.31607 31.5587 0.87868 32.1213C1.44129 32.6839 2.20435 33 3 33H33C33.7956 33 34.5587 32.6839 35.1213 32.1213C35.6839 31.5587 36 30.7956 36 30V21C36 20.2044 35.6839 19.4413 35.1213 18.8787C34.5587 18.3161 33.7956 18 33 18ZM33 30H3V21H33V30ZM33 0H3C2.20435 0 1.44129 0.31607 0.87868 0.87868C0.31607 1.44129 0 2.20435 0 3V12C0 12.7956 0.31607 13.5587 0.87868 14.1213C1.44129 14.6839 2.20435 15 3 15H33C33.7956 15 34.5587 14.6839 35.1213 14.1213C35.6839 13.5587 36 12.7956 36 12V3C36 2.20435 35.6839 1.44129 35.1213 0.87868C34.5587 0.31607 33.7956 0 33 0ZM33 12H3V3H33V12ZM30 7.5C30 7.94501 29.868 8.38002 29.6208 8.75003C29.3736 9.12004 29.0222 9.40843 28.611 9.57873C28.1999 9.74903 27.7475 9.79358 27.311 9.70677C26.8746 9.61995 26.4737 9.40566 26.159 9.09099C25.8443 8.77632 25.63 8.37541 25.5432 7.93895C25.4564 7.5025 25.501 7.0501 25.6713 6.63896C25.8416 6.22783 26.13 5.87643 26.5 5.62919C26.87 5.38196 27.305 5.25 27.75 5.25C28.3467 5.25 28.919 5.48705 29.341 5.90901C29.7629 6.33097 30 6.90326 30 7.5ZM30 25.5C30 25.945 29.868 26.38 29.6208 26.75C29.3736 27.12 29.0222 27.4084 28.611 27.5787C28.1999 27.749 27.7475 27.7936 27.311 27.7068C26.8746 27.62 26.4737 27.4057 26.159 27.091C25.8443 26.7763 25.63 26.3754 25.5432 25.939C25.4564 25.5025 25.501 25.0501 25.6713 24.639C25.8416 24.2278 26.13 23.8764 26.5 23.6292C26.87 23.382 27.305 23.25 27.75 23.25C28.3467 23.25 28.919 23.4871 29.341 23.909C29.7629 24.331 30 24.9033 30 25.5Z" fill="#EABD5F"/>
</svg>
