<svg width="44" height="33" viewBox="0 0 44 33" fill="none" xmlns="http://www.w3.org/2000/svg">
<path d="M39 6H36V4.5C36 3.30653 35.5259 2.16193 34.682 1.31802C33.8381 0.474106 32.6935 0 31.5 0H4.5C3.30653 0 2.16193 0.474106 1.31802 1.31802C0.474106 2.16193 0 3.30653 0 4.5V22.5C0 23.6935 0.474106 24.8381 1.31802 25.682C2.16193 26.5259 3.30653 27 4.5 27H25.5V28.5C25.5 29.6935 25.9741 30.8381 26.818 31.682C27.6619 32.5259 28.8065 33 30 33H39C40.1935 33 41.3381 32.5259 42.182 31.682C43.0259 30.8381 43.5 29.6935 43.5 28.5V10.5C43.5 9.30653 43.0259 8.16193 42.182 7.31802C41.3381 6.47411 40.1935 6 39 6ZM4.5 24C4.10218 24 3.72064 23.842 3.43934 23.5607C3.15804 23.2794 3 22.8978 3 22.5V4.5C3 4.10218 3.15804 3.72064 3.43934 3.43934C3.72064 3.15804 4.10218 3 4.5 3H31.5C31.8978 3 32.2794 3.15804 32.5607 3.43934C32.842 3.72064 33 4.10218 33 4.5V6H30C28.8065 6 27.6619 6.47411 26.818 7.31802C25.9741 8.16193 25.5 9.30653 25.5 10.5V24H4.5ZM40.5 28.5C40.5 28.8978 40.342 29.2794 40.0607 29.5607C39.7794 29.842 39.3978 30 39 30H30C29.6022 30 29.2206 29.842 28.9393 29.5607C28.658 29.2794 28.5 28.8978 28.5 28.5V10.5C28.5 10.1022 28.658 9.72064 28.9393 9.43934C29.2206 9.15804 29.6022 9 30 9H39C39.3978 9 39.7794 9.15804 40.0607 9.43934C40.342 9.72064 40.5 10.1022 40.5 10.5V28.5ZM22.5 31.5C22.5 31.8978 22.342 32.2794 22.0607 32.5607C21.7794 32.842 21.3978 33 21 33H13.5C13.1022 33 12.7206 32.842 12.4393 32.5607C12.158 32.2794 12 31.8978 12 31.5C12 31.1022 12.158 30.7206 12.4393 30.4393C12.7206 30.158 13.1022 30 13.5 30H21C21.3978 30 21.7794 30.158 22.0607 30.4393C22.342 30.7206 22.5 31.1022 22.5 31.5ZM37.5 13.5C37.5 13.8978 37.342 14.2794 37.0607 14.5607C36.7794 14.842 36.3978 15 36 15H33C32.6022 15 32.2206 14.842 31.9393 14.5607C31.658 14.2794 31.5 13.8978 31.5 13.5C31.5 13.1022 31.658 12.7206 31.9393 12.4393C32.2206 12.158 32.6022 12 33 12H36C36.3978 12 36.7794 12.158 37.0607 12.4393C37.342 12.7206 37.5 13.1022 37.5 13.5Z" fill="#BB72E9"/>
</svg>
