<svg width="45" height="21" viewBox="0 0 45 21" fill="none" xmlns="http://www.w3.org/2000/svg">
<path d="M44.9955 10.5008C44.9956 12.5776 44.3799 14.6078 43.2262 16.3346C42.0724 18.0615 40.4325 19.4074 38.5138 20.2022C36.5951 20.997 34.4837 21.2049 32.4468 20.7997C30.4099 20.3945 28.5389 19.3944 27.0705 17.9258L27.0086 17.8601L15.768 5.16639C14.7156 4.12631 13.3791 3.42075 11.9267 3.13849C10.4743 2.85624 8.97078 3.00989 7.60548 3.58013C6.24017 4.15036 5.07403 5.1117 4.25381 6.34315C3.43359 7.57461 2.99595 9.02116 2.99595 10.5008C2.99595 11.9804 3.43359 13.4269 4.25381 14.6584C5.07403 15.8898 6.24017 16.8512 7.60548 17.4214C8.97078 17.9916 10.4743 18.1453 11.9267 17.863C13.3791 17.5808 14.7156 16.8752 15.768 15.8351L17.3655 14.0314C17.4961 13.8836 17.6546 13.7631 17.8318 13.6766C18.009 13.5901 18.2015 13.5393 18.3983 13.5272C18.5952 13.5151 18.7925 13.5419 18.9789 13.6061C19.1654 13.6702 19.3374 13.7704 19.4852 13.9011C19.6329 14.0317 19.7535 14.1901 19.84 14.3674C19.9265 14.5446 19.9772 14.7371 19.9893 14.9339C20.0014 15.1308 19.9747 15.328 19.9105 15.5145C19.8464 15.701 19.7461 15.873 19.6155 16.0208L17.9861 17.8601L17.9242 17.9258C16.4557 19.3941 14.5848 20.394 12.5481 20.7991C10.5113 21.2041 8.40014 20.9961 6.48158 20.2014C4.56301 19.4066 2.9232 18.0608 1.76949 16.3341C0.615787 14.6074 0 12.5774 0 10.5008C0 8.4241 0.615787 6.39408 1.76949 4.66739C2.9232 2.94069 4.56301 1.59488 6.48158 0.800129C8.40014 0.00537756 10.5113 -0.202619 12.5481 0.202439C14.5848 0.607497 16.4557 1.60742 17.9242 3.07576L17.9861 3.14139L29.2267 15.8351C30.2791 16.8752 31.6156 17.5808 33.068 17.863C34.5205 18.1453 36.024 17.9916 37.3893 17.4214C38.7546 16.8512 39.9207 15.8898 40.7409 14.6584C41.5611 13.4269 41.9988 11.9804 41.9988 10.5008C41.9988 9.02116 41.5611 7.57461 40.7409 6.34315C39.9207 5.1117 38.7546 4.15036 37.3893 3.58013C36.024 3.00989 34.5205 2.85624 33.068 3.13849C31.6156 3.42075 30.2791 4.12631 29.2267 5.16639L27.6292 6.97014C27.3654 7.26851 26.9939 7.44986 26.5964 7.47429C26.1989 7.49873 25.8079 7.36426 25.5096 7.10045C25.2112 6.83664 25.0298 6.46511 25.0054 6.06759C24.981 5.67008 25.1154 5.27913 25.3792 4.98076L27.0086 3.14139L27.0705 3.07576C28.5389 1.60716 30.4099 0.607008 32.4468 0.201801C34.4837 -0.203407 36.5951 0.0045298 38.5138 0.799312C40.4325 1.59409 42.0724 2.94002 43.2262 4.66688C44.3799 6.39373 44.9956 8.42395 44.9955 10.5008Z" fill="#82BC4F"/>
</svg>
